<svg width="200" height="200" viewBox="0 0 200 200" fill="none" xmlns="http://www.w3.org/2000/svg">
  <rect width="200" height="200" fill="#f3f4f6"/>
  <path d="M100 80C88.9543 80 80 88.9543 80 100C80 111.046 88.9543 120 100 120C111.046 120 120 111.046 120 100C120 88.9543 111.046 80 100 80ZM100 110C94.4772 110 90 105.523 90 100C90 94.4772 94.4772 90 100 90C105.523 90 110 94.4772 110 100C110 105.523 105.523 110 100 110Z" fill="#9ca3af"/>
  <path d="M140 60H60C55.5817 60 52 63.5817 52 68V132C52 136.418 55.5817 140 60 140H140C144.418 140 148 136.418 148 132V68C148 63.5817 144.418 60 140 60ZM140 132H60V68H140V132Z" fill="#9ca3af"/>
</svg> 